<!--
    DO NOT EDIT THIS FILE
    It's generated automatically by 'yarn sprite' command.
    You have to re-generate 'sprite.svg' every time you
    modifying icons in 'images/svg/' folder
    @preserve
-->
<svg xmlns="http://www.w3.org/2000/svg" xmlns:xlink="http://www.w3.org/1999/xlink"><symbol viewBox="0 0 16 16" id="svg-add" xmlns="http://www.w3.org/2000/svg"><path d="M7.042 16V8.958H0V7.042h7.042V0h1.916v7.042H16v1.916H8.958V16H7.042Z"/></symbol><symbol viewBox="0 0 12 19" id="svg-arrow" xmlns="http://www.w3.org/2000/svg"><path d="M5.685.021c-.306.054-.482.25-.525.583-.011.088-.019 1.779-.019 4.247L5.14 8.952l-.595.024c-1.737.069-2.869.248-3.405.538-.247.133-.387.269-.491.477-.405.804.182 2.407 1.741 4.759.691 1.042 1.296 1.814 1.899 2.419.514.516.917.788 1.319.891.303.077.591.036.922-.13.687-.344 1.675-1.431 2.708-2.98 1.101-1.651 1.771-2.99 1.964-3.92.054-.262.064-.657.02-.83-.159-.639-.772-.92-2.392-1.099a31.825 31.825 0 0 0-2.154-.141c-.034 0-.036-.214-.041-4.225C6.63.863 6.627.503 6.597.424a.585.585 0 0 0-.382-.372 1.437 1.437 0 0 0-.53-.031m1.325 10.45c.704.023 1.522.09 2.08.171.29.042.628.109.648.129a1.01 1.01 0 0 1-.061.225c-.559 1.638-2.611 4.718-3.664 5.497l-.116.086-.068-.046c-.229-.155-.687-.615-1.059-1.063-1.118-1.347-2.319-3.347-2.679-4.459-.086-.268-.096-.241.104-.288.599-.142 1.734-.247 2.905-.27.36-.006 1.486.004 1.91.018"/></symbol><symbol viewBox="0 0 18 18" id="svg-checkbox-empty" xmlns="http://www.w3.org/2000/svg"><path d="M15.806 2.194v13.612H2.194V2.194h13.612Zm0-1.944H2.194A1.95 1.95 0 0 0 .25 2.194v13.612a1.95 1.95 0 0 0 1.944 1.944h13.612a1.95 1.95 0 0 0 1.944-1.944V2.194A1.95 1.95 0 0 0 15.806.25Z"/></symbol><symbol viewBox="0 0 18 18" id="svg-checkbox-filled" xmlns="http://www.w3.org/2000/svg"><path d="M15.806.25H2.194A1.95 1.95 0 0 0 .25 2.194v13.612a1.95 1.95 0 0 0 1.944 1.944h13.612a1.95 1.95 0 0 0 1.944-1.944V2.194A1.95 1.95 0 0 0 15.806.25Zm0 15.556H2.194V2.194h13.612v13.612Zm-.982-9.723-1.371-1.38-6.407 6.407L4.537 8.61l-1.38 1.37 3.889 3.88 7.778-7.778Z"/></symbol><symbol viewBox="0 0 16 10" id="svg-chevron" xmlns="http://www.w3.org/2000/svg"><path d="M.787.775c-.291.114-.53.358-.562.573-.039.263.069.477.83 1.63 2.437 3.697 4.639 5.833 6.403 6.21.251.054.775.061 1.021.014.422-.081.962-.306 1.432-.598 1.458-.903 3.217-2.869 5.034-5.625.793-1.203.89-1.4.818-1.668-.103-.386-.681-.699-1.026-.554-.163.068-.279.204-.566.664-1.534 2.459-3.299 4.614-4.584 5.596-.834.637-1.445.839-2 .663-1.121-.356-2.683-1.868-4.436-4.293a37.5 37.5 0 0 1-1.322-1.966c-.287-.46-.403-.596-.566-.664C1.141.706.944.713.787.775"/></symbol><symbol viewBox="0 0 22 22" id="svg-radio-empty" xmlns="http://www.w3.org/2000/svg"><path d="M11 .5C5.204.5.5 5.204.5 11S5.204 21.5 11 21.5 21.5 16.796 21.5 11 16.796.5 11 .5Zm0 18.9A8.398 8.398 0 0 1 2.6 11c0-4.641 3.759-8.4 8.4-8.4s8.4 3.759 8.4 8.4-3.759 8.4-8.4 8.4Z"/></symbol><symbol viewBox="0 0 22 22" id="svg-radio-filled" xmlns="http://www.w3.org/2000/svg"><path d="M11 .5C5.204.5.5 5.204.5 11S5.204 21.5 11 21.5 21.5 16.796 21.5 11 16.796.5 11 .5Zm0 18.9A8.398 8.398 0 0 1 2.6 11c0-4.641 3.759-8.4 8.4-8.4s8.4 3.759 8.4 8.4-3.759 8.4-8.4 8.4Z"/><path d="M11 16.25a5.25 5.25 0 1 0 0-10.5 5.25 5.25 0 0 0 0 10.5Z"/></symbol><symbol viewBox="0 0 14 2" id="svg-remove" xmlns="http://www.w3.org/2000/svg"><path d="M14 2H0V0h14v2Z"/></symbol><symbol viewBox="0 0 20 20" id="svg-search" xmlns="http://www.w3.org/2000/svg"><path d="M14.294 12.579h-.904l-.32-.31a7.4 7.4 0 0 0 1.796-4.836 7.433 7.433 0 1 0-7.433 7.433 7.4 7.4 0 0 0 4.837-1.796l.309.32v.904L18.296 20 20 18.296l-5.706-5.717Zm-6.861 0a5.139 5.139 0 0 1-5.146-5.146 5.139 5.139 0 0 1 5.146-5.146 5.139 5.139 0 0 1 5.146 5.146 5.139 5.139 0 0 1-5.146 5.146Z"/></symbol><symbol viewBox="0 0 21 21" id="svg-throbber-circle" xmlns="http://www.w3.org/2000/svg"><path d="M18.9 10.1c.1 1.2-.1 2.5-.8 3.9-1.4 3-4.4 5-7.7 5-5.1-.2-9.1-4.7-8.2-10 .5-3 2.7-5.4 5.5-6.4C8.8 2.2 10 2 11 2.1c.6 0 1.2-.4 1.2-1.1 0-.5-.4-.9-.9-1h-.8C4.3 0-.6 5.4.1 11.7c.5 4.8 4.4 8.7 9.2 9.2 6.3.7 11.7-4.2 11.7-10.4v-.7c0-.5-.5-.9-1-.9-.6 0-1.1.5-1.1 1.2z"/></symbol></svg>